<svg id="Layer_1" data-name="Layer 1" xmlns="http://www.w3.org/2000/svg" viewBox="0 0 960 122.42"><defs><style>.cls-1{fill:#d4af37;}.cls-2{fill:#142657;}</style></defs><title>line01</title><path class="cls-1" d="M0,326.3s123.33,28,372.67-34.67c0,0,203.33-55.33,356.67-66.67,0,0,159.33-14,230.67-10V232.3s-214-6.67-370.67,26c0,0-160,31.33-300.67,60.67,0,0-130.67,20.67-223.33,17.33,0,0-60-2.67-65.33-6v-4Z" transform="translate(0 -214.25)"/><path class="cls-2" d="M0,314.67s97.33,38.67,318.67-11.33c0,0,184.67-38,324.67-40,0,0,84.67-.67,178,21.33,0,0,100.67,25.19,138.67,44.26v7.74s-164-61.7-272.67-66c0,0-86.67-8.67-228,14,0,0-146,24.67-194.67,34.67,0,0-89.33,14.67-115.33,14.67,0,0-92,1.33-149.33-13.33v-6Z" transform="translate(0 -214.25)"/></svg>